<svg xmlns="http://www.w3.org/2000/svg" viewBox="0 0 220 280">
  <defs>
    <linearGradient id="paper" x1="0" y1="0" x2="0.8" y2="1">
      <stop offset="0" stop-color="#fffef5"/>
      <stop offset="0.58" stop-color="#f8f5e9"/>
      <stop offset="1" stop-color="#e9e2c9"/>
    </linearGradient>
    <linearGradient id="gold" x1="0" y1="0" x2="1" y2="1">
      <stop offset="0" stop-color="#fff5b5"/>
      <stop offset="0.35" stop-color="#c7a84b"/>
      <stop offset="0.7" stop-color="#806626"/>
      <stop offset="1" stop-color="#d5bc66"/>
    </linearGradient>
    <pattern id="texture" width="18" height="18" patternUnits="userSpaceOnUse" patternTransform="rotate(24)">
      <path d="M0 2 H18 M0 8 H18 M0 14 H18" stroke="#c6b879" stroke-opacity=".1" stroke-width="1"/>
      <path d="M3 0 V18 M11 0 V18" stroke="#ffffff" stroke-opacity=".28" stroke-width="1"/>
    </pattern>
    <path id="shape" d="M110 7 L116 17 Q119 21 124 19 L183 22 Q200 23 202 39 V208 Q202 235 178 247 L120 268 L110 278 L100 268 L42 247 Q18 235 18 208 V39 Q20 23 37 22 L96 19 Q101 21 104 17 Z"/>
  </defs>
  <use href="#shape" fill="#4e3c18" opacity=".38" transform="translate(0 2)"/>
  <use href="#shape" fill="url(#paper)" stroke="url(#gold)" stroke-width="5"/>
  <use href="#shape" fill="url(#texture)"/>
  <path d="M110 13 L116 24 Q120 28 126 25 L181 28 Q193 29 194 41 V207 Q194 227 174 237 L118 258 L110 267 L102 258 L46 237 Q26 227 26 207 V41 Q27 29 39 28 L94 25 Q100 28 104 24 Z" fill="none" stroke="#776126" stroke-opacity=".9" stroke-width="1.6"/>
  <path d="M110 18 L116 29 Q120 33 126 30 L178 33" fill="none" stroke="#fff7c9" stroke-width="1.2" opacity=".9"/>
  <path d="M29 210 Q35 231 55 239 M191 210 Q185 231 165 239" fill="none" stroke="#fff9d5" stroke-width="1" opacity=".8"/>
  <g transform="translate(110 26)" fill="none" stroke="#a98a38" stroke-width="1">
    <circle r="5"/>
    <path d="M-3 -7 L0 -10 L3 -7 M-2 3 L0 5 L2 3"/>
  </g>
</svg>